# xmcd
#
# Track frame offsets: 
#        150
#        28084
#        60397
#        80190
#        101325
#        118494
#        136844
#        155653
#        170037
#
# Disc length: 2512 seconds
#
# Revision: 1
# Processed by: cddbd v1.5.2PL0 Copyright (c) Steve Scherf et al.
# Submitted via: ExactAudioCopy v0.99pb5
#
DISCID=7b09ce09
DTITLE=Albert Cummings - The Long Way
DYEAR=1999
DGENRE=Blues
TTITLE0=The Long Way
TTITLE1=Lonely Bed
TTITLE2=Memory
TTITLE3=Hoochie Coochie
TTITLE4=Mojo Workin'
TTITLE5=Where Did I Go Wrong
TTITLE6=Old Dog
TTITLE7=Crossroads
TTITLE8=Pull The Shades
EXTD=YEAR: 1999
EXTT0=
EXTT1=
EXTT2=
EXTT3=
EXTT4=
EXTT5=
EXTT6=
EXTT7=
EXTT8=
PLAYORDER=
